<svg width="407" height="45" viewBox="0 0 407 45" fill="none" xmlns="http://www.w3.org/2000/svg">
<mask id="path-1-outside-1_57_724" maskUnits="userSpaceOnUse" x="0.664551" y="0" width="407" height="45" fill="black">
<rect fill="white" x="0.664551" width="407" height="45"/>
<path d="M15.1606 3.352V41.656H10.0086V42.44H28.4326V41.656H23.2806V3.352H25.2966C26.6779 3.352 27.9099 3.50133 28.9926 3.8C30.0752 4.06133 31.0459 4.54667 31.9046 5.256C32.7632 5.928 33.5286 6.88 34.2006 8.112C34.8726 9.344 35.4886 10.912 36.0486 12.816H36.7766V2.568H1.66455V12.816H2.39255C2.95255 10.912 3.56855 9.344 4.24055 8.112C4.91255 6.88 5.67788 5.928 6.53655 5.256C7.39522 4.54667 8.36588 4.06133 9.44855 3.8C10.5312 3.50133 11.7632 3.352 13.1446 3.352H15.1606Z"/>
<path d="M59.1969 20.656V3.352C59.6076 3.31466 60.0183 3.27733 60.4289 3.24C60.8396 3.20267 61.2503 3.184 61.6609 3.184C63.0796 3.184 64.2369 3.37067 65.1329 3.744C66.0663 4.11733 66.7943 4.696 67.3169 5.48C67.8396 6.22667 68.2129 7.19733 68.4369 8.392C68.6609 9.54933 68.7729 10.9493 68.7729 12.592C68.7729 13.6 68.6983 14.5893 68.5489 15.56C68.4369 16.5307 68.1383 17.408 67.6529 18.192C67.1676 18.9387 66.4396 19.536 65.4689 19.984C64.4983 20.432 63.1729 20.656 61.4929 20.656H59.1969ZM51.0769 3.352V41.656H45.9249V42.44H64.3489V41.656H59.1969V21.44H62.8929C64.6476 21.44 66.0103 21.776 66.9809 22.448C67.9516 23.12 68.6796 24.016 69.1649 25.136C69.6503 26.256 69.9489 27.544 70.0609 29C70.2103 30.4187 70.3223 31.8933 70.3969 33.424C70.4343 34.432 70.5089 35.5147 70.6209 36.672C70.7703 37.792 71.1249 38.8373 71.6849 39.808C72.2449 40.7787 73.1036 41.6 74.2609 42.272C75.4183 42.9067 77.0236 43.224 79.0769 43.224C80.0849 43.224 80.9249 43.1493 81.5969 43C82.2689 42.888 82.8289 42.72 83.2769 42.496C83.7623 42.272 84.1729 42.0107 84.5089 41.712C84.8823 41.376 85.2556 41.0213 85.6289 40.648L85.0689 40.144C84.6956 40.5173 84.2663 40.928 83.7809 41.376C83.2956 41.7867 82.6796 41.992 81.9329 41.992C81.2609 41.992 80.7383 41.8613 80.3649 41.6C80.0289 41.3387 79.7489 40.816 79.5249 40.032C79.3383 39.248 79.1889 38.1467 79.0769 36.728C78.9649 35.3093 78.8156 33.424 78.6289 31.072C78.4796 29.056 78.0876 27.4507 77.4529 26.256C76.8556 25.0613 76.0343 24.128 74.9889 23.456C73.9436 22.784 72.6929 22.28 71.2369 21.944C69.8183 21.608 68.1943 21.272 66.3649 20.936V20.656C67.6343 20.544 68.9223 20.32 70.2289 19.984C71.5356 19.6107 72.7116 19.088 73.7569 18.416C74.8396 17.744 75.7169 16.8853 76.3889 15.84C77.0609 14.7573 77.3969 13.4693 77.3969 11.976C77.3969 10.1093 76.9489 8.56 76.0529 7.328C75.1943 6.096 74.0929 5.12533 72.7489 4.416C71.4049 3.66933 69.9116 3.14666 68.2689 2.848C66.6636 2.54933 65.1329 2.4 63.6769 2.4C62.1089 2.4 60.5596 2.43733 59.0289 2.512C57.4983 2.54933 55.9489 2.568 54.3809 2.568H45.9249V3.352H51.0769Z"/>
<path d="M106.347 10.576L112.955 25.864H100.075L106.347 10.576ZM87.979 41.656V42.44H98.563V41.656H93.579L99.795 26.648H113.235L119.731 41.656H114.523V42.44H133.339V41.656H128.523L110.883 1H109.371L92.683 41.656H87.979Z"/>
<path d="M151.935 41.656V3.352C152.309 3.27733 152.794 3.24 153.391 3.24C153.989 3.20267 154.661 3.184 155.407 3.184C158.655 3.184 161.269 3.65066 163.247 4.584C165.263 5.51733 166.813 6.86133 167.895 8.616C169.015 10.3333 169.762 12.424 170.135 14.888C170.509 17.3147 170.695 20.04 170.695 23.064C170.695 24.296 170.639 25.6213 170.527 27.04C170.415 28.4213 170.173 29.8213 169.799 31.24C169.463 32.6213 168.941 33.9467 168.231 35.216C167.559 36.4853 166.626 37.624 165.431 38.632C164.274 39.6027 162.837 40.3867 161.119 40.984C159.402 41.544 157.33 41.824 154.903 41.824C154.007 41.824 153.018 41.768 151.935 41.656ZM143.815 3.352V41.656H138.663V42.44H143.815C145.943 42.44 148.053 42.4587 150.143 42.496C152.271 42.5333 154.399 42.552 156.527 42.552C157.983 42.552 159.551 42.44 161.231 42.216C162.949 41.992 164.666 41.6 166.383 41.04C168.138 40.4427 169.818 39.6587 171.423 38.688C173.029 37.7173 174.447 36.4853 175.679 34.992C176.949 33.4987 177.957 31.7253 178.703 29.672C179.45 27.6187 179.823 25.2293 179.823 22.504C179.823 19.7413 179.45 17.3333 178.703 15.28C177.957 13.2267 176.949 11.4533 175.679 9.96C174.41 8.46667 172.954 7.23467 171.311 6.264C169.669 5.29333 167.933 4.528 166.103 3.968C164.274 3.37067 162.426 2.96 160.559 2.736C158.693 2.512 156.919 2.4 155.239 2.4C153.335 2.4 151.431 2.43733 149.527 2.512C147.623 2.54933 145.719 2.568 143.815 2.568H138.663V3.352H143.815Z"/>
<path d="M189.607 2.568V3.352H194.759V41.656H189.607V42.44H225.391V30.176H224.663C224.29 31.7813 223.749 33.2933 223.039 34.712C222.33 36.0933 221.434 37.3067 220.351 38.352C219.306 39.3973 218.093 40.2187 216.711 40.816C215.33 41.376 213.781 41.656 212.063 41.656H202.879V21.44H206.631C207.938 21.44 209.021 21.664 209.879 22.112C210.775 22.56 211.522 23.176 212.119 23.96C212.717 24.7067 213.183 25.584 213.519 26.592C213.893 27.6 214.21 28.6453 214.471 29.728H215.199V12.312H214.471C214.21 13.5813 213.874 14.7387 213.463 15.784C213.053 16.792 212.53 17.6693 211.895 18.416C211.261 19.1253 210.458 19.6853 209.487 20.096C208.554 20.4693 207.397 20.656 206.015 20.656H202.879V3.352H211.783C213.613 3.352 215.162 3.70667 216.431 4.416C217.701 5.088 218.727 5.89067 219.511 6.824C220.333 7.75733 220.967 8.728 221.415 9.736C221.863 10.7067 222.181 11.5093 222.367 12.144H223.095V2.568H189.607Z"/>
<path d="M252.919 2.568V3.352H257.511L271.399 43.952H273.023L282.431 17.464H282.543L291.727 43.952H293.351L307.743 3.352H312.279V2.568H301.975V3.352H306.791L296.431 32.92H296.319L286.183 3.352H291.391V2.568H274.647V3.352H277.671L282.039 16.176L276.159 32.864H276.047L265.967 3.352H270.055V2.568H252.919Z"/>
<path d="M333.581 10.576L340.189 25.864H327.309L333.581 10.576ZM315.213 41.656V42.44H325.797V41.656H320.813L327.029 26.648H340.469L346.965 41.656H341.757V42.44H360.573V41.656H355.757L338.117 1H336.605L319.917 41.656H315.213Z"/>
<path d="M379.338 20.656V3.352C379.748 3.31466 380.159 3.27733 380.57 3.24C380.98 3.20267 381.391 3.184 381.802 3.184C383.22 3.184 384.378 3.37067 385.274 3.744C386.207 4.11733 386.935 4.696 387.458 5.48C387.98 6.22667 388.354 7.19733 388.578 8.392C388.802 9.54933 388.914 10.9493 388.914 12.592C388.914 13.6 388.839 14.5893 388.69 15.56C388.578 16.5307 388.279 17.408 387.794 18.192C387.308 18.9387 386.58 19.536 385.61 19.984C384.639 20.432 383.314 20.656 381.634 20.656H379.338ZM371.218 3.352V41.656H366.066V42.44H384.49V41.656H379.338V21.44H383.034C384.788 21.44 386.151 21.776 387.122 22.448C388.092 23.12 388.82 24.016 389.306 25.136C389.791 26.256 390.09 27.544 390.202 29C390.351 30.4187 390.463 31.8933 390.538 33.424C390.575 34.432 390.65 35.5147 390.762 36.672C390.911 37.792 391.266 38.8373 391.826 39.808C392.386 40.7787 393.244 41.6 394.402 42.272C395.559 42.9067 397.164 43.224 399.218 43.224C400.226 43.224 401.066 43.1493 401.738 43C402.41 42.888 402.97 42.72 403.418 42.496C403.903 42.272 404.314 42.0107 404.65 41.712C405.023 41.376 405.396 41.0213 405.77 40.648L405.21 40.144C404.836 40.5173 404.407 40.928 403.922 41.376C403.436 41.7867 402.82 41.992 402.074 41.992C401.402 41.992 400.879 41.8613 400.506 41.6C400.17 41.3387 399.89 40.816 399.666 40.032C399.479 39.248 399.33 38.1467 399.218 36.728C399.106 35.3093 398.956 33.424 398.77 31.072C398.62 29.056 398.228 27.4507 397.594 26.256C396.996 25.0613 396.175 24.128 395.13 23.456C394.084 22.784 392.834 22.28 391.378 21.944C389.959 21.608 388.335 21.272 386.506 20.936V20.656C387.775 20.544 389.063 20.32 390.37 19.984C391.676 19.6107 392.852 19.088 393.898 18.416C394.98 17.744 395.858 16.8853 396.53 15.84C397.202 14.7573 397.538 13.4693 397.538 11.976C397.538 10.1093 397.09 8.56 396.194 7.328C395.335 6.096 394.234 5.12533 392.89 4.416C391.546 3.66933 390.052 3.14666 388.41 2.848C386.804 2.54933 385.274 2.4 383.818 2.4C382.25 2.4 380.7 2.43733 379.17 2.512C377.639 2.54933 376.09 2.568 374.522 2.568H366.066V3.352H371.218Z"/>
</mask>
<path d="M15.1606 3.352V41.656H10.0086V42.44H28.4326V41.656H23.2806V3.352H25.2966C26.6779 3.352 27.9099 3.50133 28.9926 3.8C30.0752 4.06133 31.0459 4.54667 31.9046 5.256C32.7632 5.928 33.5286 6.88 34.2006 8.112C34.8726 9.344 35.4886 10.912 36.0486 12.816H36.7766V2.568H1.66455V12.816H2.39255C2.95255 10.912 3.56855 9.344 4.24055 8.112C4.91255 6.88 5.67788 5.928 6.53655 5.256C7.39522 4.54667 8.36588 4.06133 9.44855 3.8C10.5312 3.50133 11.7632 3.352 13.1446 3.352H15.1606Z" fill="#212121"/>
<path d="M59.1969 20.656V3.352C59.6076 3.31466 60.0183 3.27733 60.4289 3.24C60.8396 3.20267 61.2503 3.184 61.6609 3.184C63.0796 3.184 64.2369 3.37067 65.1329 3.744C66.0663 4.11733 66.7943 4.696 67.3169 5.48C67.8396 6.22667 68.2129 7.19733 68.4369 8.392C68.6609 9.54933 68.7729 10.9493 68.7729 12.592C68.7729 13.6 68.6983 14.5893 68.5489 15.56C68.4369 16.5307 68.1383 17.408 67.6529 18.192C67.1676 18.9387 66.4396 19.536 65.4689 19.984C64.4983 20.432 63.1729 20.656 61.4929 20.656H59.1969ZM51.0769 3.352V41.656H45.9249V42.44H64.3489V41.656H59.1969V21.44H62.8929C64.6476 21.44 66.0103 21.776 66.9809 22.448C67.9516 23.12 68.6796 24.016 69.1649 25.136C69.6503 26.256 69.9489 27.544 70.0609 29C70.2103 30.4187 70.3223 31.8933 70.3969 33.424C70.4343 34.432 70.5089 35.5147 70.6209 36.672C70.7703 37.792 71.1249 38.8373 71.6849 39.808C72.2449 40.7787 73.1036 41.6 74.2609 42.272C75.4183 42.9067 77.0236 43.224 79.0769 43.224C80.0849 43.224 80.9249 43.1493 81.5969 43C82.2689 42.888 82.8289 42.72 83.2769 42.496C83.7623 42.272 84.1729 42.0107 84.5089 41.712C84.8823 41.376 85.2556 41.0213 85.6289 40.648L85.0689 40.144C84.6956 40.5173 84.2663 40.928 83.7809 41.376C83.2956 41.7867 82.6796 41.992 81.9329 41.992C81.2609 41.992 80.7383 41.8613 80.3649 41.6C80.0289 41.3387 79.7489 40.816 79.5249 40.032C79.3383 39.248 79.1889 38.1467 79.0769 36.728C78.9649 35.3093 78.8156 33.424 78.6289 31.072C78.4796 29.056 78.0876 27.4507 77.4529 26.256C76.8556 25.0613 76.0343 24.128 74.9889 23.456C73.9436 22.784 72.6929 22.28 71.2369 21.944C69.8183 21.608 68.1943 21.272 66.3649 20.936V20.656C67.6343 20.544 68.9223 20.32 70.2289 19.984C71.5356 19.6107 72.7116 19.088 73.7569 18.416C74.8396 17.744 75.7169 16.8853 76.3889 15.84C77.0609 14.7573 77.3969 13.4693 77.3969 11.976C77.3969 10.1093 76.9489 8.56 76.0529 7.328C75.1943 6.096 74.0929 5.12533 72.7489 4.416C71.4049 3.66933 69.9116 3.14666 68.2689 2.848C66.6636 2.54933 65.1329 2.4 63.6769 2.4C62.1089 2.4 60.5596 2.43733 59.0289 2.512C57.4983 2.54933 55.9489 2.568 54.3809 2.568H45.9249V3.352H51.0769Z" fill="#212121"/>
<path d="M106.347 10.576L112.955 25.864H100.075L106.347 10.576ZM87.979 41.656V42.44H98.563V41.656H93.579L99.795 26.648H113.235L119.731 41.656H114.523V42.44H133.339V41.656H128.523L110.883 1H109.371L92.683 41.656H87.979Z" fill="#212121"/>
<path d="M151.935 41.656V3.352C152.309 3.27733 152.794 3.24 153.391 3.24C153.989 3.20267 154.661 3.184 155.407 3.184C158.655 3.184 161.269 3.65066 163.247 4.584C165.263 5.51733 166.813 6.86133 167.895 8.616C169.015 10.3333 169.762 12.424 170.135 14.888C170.509 17.3147 170.695 20.04 170.695 23.064C170.695 24.296 170.639 25.6213 170.527 27.04C170.415 28.4213 170.173 29.8213 169.799 31.24C169.463 32.6213 168.941 33.9467 168.231 35.216C167.559 36.4853 166.626 37.624 165.431 38.632C164.274 39.6027 162.837 40.3867 161.119 40.984C159.402 41.544 157.33 41.824 154.903 41.824C154.007 41.824 153.018 41.768 151.935 41.656ZM143.815 3.352V41.656H138.663V42.44H143.815C145.943 42.44 148.053 42.4587 150.143 42.496C152.271 42.5333 154.399 42.552 156.527 42.552C157.983 42.552 159.551 42.44 161.231 42.216C162.949 41.992 164.666 41.6 166.383 41.04C168.138 40.4427 169.818 39.6587 171.423 38.688C173.029 37.7173 174.447 36.4853 175.679 34.992C176.949 33.4987 177.957 31.7253 178.703 29.672C179.45 27.6187 179.823 25.2293 179.823 22.504C179.823 19.7413 179.45 17.3333 178.703 15.28C177.957 13.2267 176.949 11.4533 175.679 9.96C174.41 8.46667 172.954 7.23467 171.311 6.264C169.669 5.29333 167.933 4.528 166.103 3.968C164.274 3.37067 162.426 2.96 160.559 2.736C158.693 2.512 156.919 2.4 155.239 2.4C153.335 2.4 151.431 2.43733 149.527 2.512C147.623 2.54933 145.719 2.568 143.815 2.568H138.663V3.352H143.815Z" fill="#212121"/>
<path d="M189.607 2.568V3.352H194.759V41.656H189.607V42.44H225.391V30.176H224.663C224.29 31.7813 223.749 33.2933 223.039 34.712C222.33 36.0933 221.434 37.3067 220.351 38.352C219.306 39.3973 218.093 40.2187 216.711 40.816C215.33 41.376 213.781 41.656 212.063 41.656H202.879V21.44H206.631C207.938 21.44 209.021 21.664 209.879 22.112C210.775 22.56 211.522 23.176 212.119 23.96C212.717 24.7067 213.183 25.584 213.519 26.592C213.893 27.6 214.21 28.6453 214.471 29.728H215.199V12.312H214.471C214.21 13.5813 213.874 14.7387 213.463 15.784C213.053 16.792 212.53 17.6693 211.895 18.416C211.261 19.1253 210.458 19.6853 209.487 20.096C208.554 20.4693 207.397 20.656 206.015 20.656H202.879V3.352H211.783C213.613 3.352 215.162 3.70667 216.431 4.416C217.701 5.088 218.727 5.89067 219.511 6.824C220.333 7.75733 220.967 8.728 221.415 9.736C221.863 10.7067 222.181 11.5093 222.367 12.144H223.095V2.568H189.607Z" fill="#212121"/>
<path d="M252.919 2.568V3.352H257.511L271.399 43.952H273.023L282.431 17.464H282.543L291.727 43.952H293.351L307.743 3.352H312.279V2.568H301.975V3.352H306.791L296.431 32.92H296.319L286.183 3.352H291.391V2.568H274.647V3.352H277.671L282.039 16.176L276.159 32.864H276.047L265.967 3.352H270.055V2.568H252.919Z" fill="#212121"/>
<path d="M333.581 10.576L340.189 25.864H327.309L333.581 10.576ZM315.213 41.656V42.44H325.797V41.656H320.813L327.029 26.648H340.469L346.965 41.656H341.757V42.44H360.573V41.656H355.757L338.117 1H336.605L319.917 41.656H315.213Z" fill="#212121"/>
<path d="M379.338 20.656V3.352C379.748 3.31466 380.159 3.27733 380.57 3.24C380.98 3.20267 381.391 3.184 381.802 3.184C383.22 3.184 384.378 3.37067 385.274 3.744C386.207 4.11733 386.935 4.696 387.458 5.48C387.98 6.22667 388.354 7.19733 388.578 8.392C388.802 9.54933 388.914 10.9493 388.914 12.592C388.914 13.6 388.839 14.5893 388.69 15.56C388.578 16.5307 388.279 17.408 387.794 18.192C387.308 18.9387 386.58 19.536 385.61 19.984C384.639 20.432 383.314 20.656 381.634 20.656H379.338ZM371.218 3.352V41.656H366.066V42.44H384.49V41.656H379.338V21.44H383.034C384.788 21.44 386.151 21.776 387.122 22.448C388.092 23.12 388.82 24.016 389.306 25.136C389.791 26.256 390.09 27.544 390.202 29C390.351 30.4187 390.463 31.8933 390.538 33.424C390.575 34.432 390.65 35.5147 390.762 36.672C390.911 37.792 391.266 38.8373 391.826 39.808C392.386 40.7787 393.244 41.6 394.402 42.272C395.559 42.9067 397.164 43.224 399.218 43.224C400.226 43.224 401.066 43.1493 401.738 43C402.41 42.888 402.97 42.72 403.418 42.496C403.903 42.272 404.314 42.0107 404.65 41.712C405.023 41.376 405.396 41.0213 405.77 40.648L405.21 40.144C404.836 40.5173 404.407 40.928 403.922 41.376C403.436 41.7867 402.82 41.992 402.074 41.992C401.402 41.992 400.879 41.8613 400.506 41.6C400.17 41.3387 399.89 40.816 399.666 40.032C399.479 39.248 399.33 38.1467 399.218 36.728C399.106 35.3093 398.956 33.424 398.77 31.072C398.62 29.056 398.228 27.4507 397.594 26.256C396.996 25.0613 396.175 24.128 395.13 23.456C394.084 22.784 392.834 22.28 391.378 21.944C389.959 21.608 388.335 21.272 386.506 20.936V20.656C387.775 20.544 389.063 20.32 390.37 19.984C391.676 19.6107 392.852 19.088 393.898 18.416C394.98 17.744 395.858 16.8853 396.53 15.84C397.202 14.7573 397.538 13.4693 397.538 11.976C397.538 10.1093 397.09 8.56 396.194 7.328C395.335 6.096 394.234 5.12533 392.89 4.416C391.546 3.66933 390.052 3.14666 388.41 2.848C386.804 2.54933 385.274 2.4 383.818 2.4C382.25 2.4 380.7 2.43733 379.17 2.512C377.639 2.54933 376.09 2.568 374.522 2.568H366.066V3.352H371.218Z" fill="#212121"/>
<path d="M15.1606 3.352V41.656H10.0086V42.44H28.4326V41.656H23.2806V3.352H25.2966C26.6779 3.352 27.9099 3.50133 28.9926 3.8C30.0752 4.06133 31.0459 4.54667 31.9046 5.256C32.7632 5.928 33.5286 6.88 34.2006 8.112C34.8726 9.344 35.4886 10.912 36.0486 12.816H36.7766V2.568H1.66455V12.816H2.39255C2.95255 10.912 3.56855 9.344 4.24055 8.112C4.91255 6.88 5.67788 5.928 6.53655 5.256C7.39522 4.54667 8.36588 4.06133 9.44855 3.8C10.5312 3.50133 11.7632 3.352 13.1446 3.352H15.1606Z" stroke="#212121" stroke-width="1.4" mask="url(#path-1-outside-1_57_724)"/>
<path d="M59.1969 20.656V3.352C59.6076 3.31466 60.0183 3.27733 60.4289 3.24C60.8396 3.20267 61.2503 3.184 61.6609 3.184C63.0796 3.184 64.2369 3.37067 65.1329 3.744C66.0663 4.11733 66.7943 4.696 67.3169 5.48C67.8396 6.22667 68.2129 7.19733 68.4369 8.392C68.6609 9.54933 68.7729 10.9493 68.7729 12.592C68.7729 13.6 68.6983 14.5893 68.5489 15.56C68.4369 16.5307 68.1383 17.408 67.6529 18.192C67.1676 18.9387 66.4396 19.536 65.4689 19.984C64.4983 20.432 63.1729 20.656 61.4929 20.656H59.1969ZM51.0769 3.352V41.656H45.9249V42.44H64.3489V41.656H59.1969V21.44H62.8929C64.6476 21.44 66.0103 21.776 66.9809 22.448C67.9516 23.12 68.6796 24.016 69.1649 25.136C69.6503 26.256 69.9489 27.544 70.0609 29C70.2103 30.4187 70.3223 31.8933 70.3969 33.424C70.4343 34.432 70.5089 35.5147 70.6209 36.672C70.7703 37.792 71.1249 38.8373 71.6849 39.808C72.2449 40.7787 73.1036 41.6 74.2609 42.272C75.4183 42.9067 77.0236 43.224 79.0769 43.224C80.0849 43.224 80.9249 43.1493 81.5969 43C82.2689 42.888 82.8289 42.72 83.2769 42.496C83.7623 42.272 84.1729 42.0107 84.5089 41.712C84.8823 41.376 85.2556 41.0213 85.6289 40.648L85.0689 40.144C84.6956 40.5173 84.2663 40.928 83.7809 41.376C83.2956 41.7867 82.6796 41.992 81.9329 41.992C81.2609 41.992 80.7383 41.8613 80.3649 41.6C80.0289 41.3387 79.7489 40.816 79.5249 40.032C79.3383 39.248 79.1889 38.1467 79.0769 36.728C78.9649 35.3093 78.8156 33.424 78.6289 31.072C78.4796 29.056 78.0876 27.4507 77.4529 26.256C76.8556 25.0613 76.0343 24.128 74.9889 23.456C73.9436 22.784 72.6929 22.28 71.2369 21.944C69.8183 21.608 68.1943 21.272 66.3649 20.936V20.656C67.6343 20.544 68.9223 20.32 70.2289 19.984C71.5356 19.6107 72.7116 19.088 73.7569 18.416C74.8396 17.744 75.7169 16.8853 76.3889 15.84C77.0609 14.7573 77.3969 13.4693 77.3969 11.976C77.3969 10.1093 76.9489 8.56 76.0529 7.328C75.1943 6.096 74.0929 5.12533 72.7489 4.416C71.4049 3.66933 69.9116 3.14666 68.2689 2.848C66.6636 2.54933 65.1329 2.4 63.6769 2.4C62.1089 2.4 60.5596 2.43733 59.0289 2.512C57.4983 2.54933 55.9489 2.568 54.3809 2.568H45.9249V3.352H51.0769Z" stroke="#212121" stroke-width="1.4" mask="url(#path-1-outside-1_57_724)"/>
<path d="M106.347 10.576L112.955 25.864H100.075L106.347 10.576ZM87.979 41.656V42.44H98.563V41.656H93.579L99.795 26.648H113.235L119.731 41.656H114.523V42.44H133.339V41.656H128.523L110.883 1H109.371L92.683 41.656H87.979Z" stroke="#212121" stroke-width="1.4" mask="url(#path-1-outside-1_57_724)"/>
<path d="M151.935 41.656V3.352C152.309 3.27733 152.794 3.24 153.391 3.24C153.989 3.20267 154.661 3.184 155.407 3.184C158.655 3.184 161.269 3.65066 163.247 4.584C165.263 5.51733 166.813 6.86133 167.895 8.616C169.015 10.3333 169.762 12.424 170.135 14.888C170.509 17.3147 170.695 20.04 170.695 23.064C170.695 24.296 170.639 25.6213 170.527 27.04C170.415 28.4213 170.173 29.8213 169.799 31.24C169.463 32.6213 168.941 33.9467 168.231 35.216C167.559 36.4853 166.626 37.624 165.431 38.632C164.274 39.6027 162.837 40.3867 161.119 40.984C159.402 41.544 157.33 41.824 154.903 41.824C154.007 41.824 153.018 41.768 151.935 41.656ZM143.815 3.352V41.656H138.663V42.44H143.815C145.943 42.44 148.053 42.4587 150.143 42.496C152.271 42.5333 154.399 42.552 156.527 42.552C157.983 42.552 159.551 42.44 161.231 42.216C162.949 41.992 164.666 41.6 166.383 41.04C168.138 40.4427 169.818 39.6587 171.423 38.688C173.029 37.7173 174.447 36.4853 175.679 34.992C176.949 33.4987 177.957 31.7253 178.703 29.672C179.45 27.6187 179.823 25.2293 179.823 22.504C179.823 19.7413 179.45 17.3333 178.703 15.28C177.957 13.2267 176.949 11.4533 175.679 9.96C174.41 8.46667 172.954 7.23467 171.311 6.264C169.669 5.29333 167.933 4.528 166.103 3.968C164.274 3.37067 162.426 2.96 160.559 2.736C158.693 2.512 156.919 2.4 155.239 2.4C153.335 2.4 151.431 2.43733 149.527 2.512C147.623 2.54933 145.719 2.568 143.815 2.568H138.663V3.352H143.815Z" stroke="#212121" stroke-width="1.4" mask="url(#path-1-outside-1_57_724)"/>
<path d="M189.607 2.568V3.352H194.759V41.656H189.607V42.44H225.391V30.176H224.663C224.29 31.7813 223.749 33.2933 223.039 34.712C222.33 36.0933 221.434 37.3067 220.351 38.352C219.306 39.3973 218.093 40.2187 216.711 40.816C215.33 41.376 213.781 41.656 212.063 41.656H202.879V21.44H206.631C207.938 21.44 209.021 21.664 209.879 22.112C210.775 22.56 211.522 23.176 212.119 23.96C212.717 24.7067 213.183 25.584 213.519 26.592C213.893 27.6 214.21 28.6453 214.471 29.728H215.199V12.312H214.471C214.21 13.5813 213.874 14.7387 213.463 15.784C213.053 16.792 212.53 17.6693 211.895 18.416C211.261 19.1253 210.458 19.6853 209.487 20.096C208.554 20.4693 207.397 20.656 206.015 20.656H202.879V3.352H211.783C213.613 3.352 215.162 3.70667 216.431 4.416C217.701 5.088 218.727 5.89067 219.511 6.824C220.333 7.75733 220.967 8.728 221.415 9.736C221.863 10.7067 222.181 11.5093 222.367 12.144H223.095V2.568H189.607Z" stroke="#212121" stroke-width="1.4" mask="url(#path-1-outside-1_57_724)"/>
<path d="M252.919 2.568V3.352H257.511L271.399 43.952H273.023L282.431 17.464H282.543L291.727 43.952H293.351L307.743 3.352H312.279V2.568H301.975V3.352H306.791L296.431 32.92H296.319L286.183 3.352H291.391V2.568H274.647V3.352H277.671L282.039 16.176L276.159 32.864H276.047L265.967 3.352H270.055V2.568H252.919Z" stroke="#212121" stroke-width="1.4" mask="url(#path-1-outside-1_57_724)"/>
<path d="M333.581 10.576L340.189 25.864H327.309L333.581 10.576ZM315.213 41.656V42.44H325.797V41.656H320.813L327.029 26.648H340.469L346.965 41.656H341.757V42.44H360.573V41.656H355.757L338.117 1H336.605L319.917 41.656H315.213Z" stroke="#212121" stroke-width="1.4" mask="url(#path-1-outside-1_57_724)"/>
<path d="M379.338 20.656V3.352C379.748 3.31466 380.159 3.27733 380.57 3.24C380.98 3.20267 381.391 3.184 381.802 3.184C383.22 3.184 384.378 3.37067 385.274 3.744C386.207 4.11733 386.935 4.696 387.458 5.48C387.98 6.22667 388.354 7.19733 388.578 8.392C388.802 9.54933 388.914 10.9493 388.914 12.592C388.914 13.6 388.839 14.5893 388.69 15.56C388.578 16.5307 388.279 17.408 387.794 18.192C387.308 18.9387 386.58 19.536 385.61 19.984C384.639 20.432 383.314 20.656 381.634 20.656H379.338ZM371.218 3.352V41.656H366.066V42.44H384.49V41.656H379.338V21.44H383.034C384.788 21.44 386.151 21.776 387.122 22.448C388.092 23.12 388.82 24.016 389.306 25.136C389.791 26.256 390.09 27.544 390.202 29C390.351 30.4187 390.463 31.8933 390.538 33.424C390.575 34.432 390.65 35.5147 390.762 36.672C390.911 37.792 391.266 38.8373 391.826 39.808C392.386 40.7787 393.244 41.6 394.402 42.272C395.559 42.9067 397.164 43.224 399.218 43.224C400.226 43.224 401.066 43.1493 401.738 43C402.41 42.888 402.97 42.72 403.418 42.496C403.903 42.272 404.314 42.0107 404.65 41.712C405.023 41.376 405.396 41.0213 405.77 40.648L405.21 40.144C404.836 40.5173 404.407 40.928 403.922 41.376C403.436 41.7867 402.82 41.992 402.074 41.992C401.402 41.992 400.879 41.8613 400.506 41.6C400.17 41.3387 399.89 40.816 399.666 40.032C399.479 39.248 399.33 38.1467 399.218 36.728C399.106 35.3093 398.956 33.424 398.77 31.072C398.62 29.056 398.228 27.4507 397.594 26.256C396.996 25.0613 396.175 24.128 395.13 23.456C394.084 22.784 392.834 22.28 391.378 21.944C389.959 21.608 388.335 21.272 386.506 20.936V20.656C387.775 20.544 389.063 20.32 390.37 19.984C391.676 19.6107 392.852 19.088 393.898 18.416C394.98 17.744 395.858 16.8853 396.53 15.84C397.202 14.7573 397.538 13.4693 397.538 11.976C397.538 10.1093 397.09 8.56 396.194 7.328C395.335 6.096 394.234 5.12533 392.89 4.416C391.546 3.66933 390.052 3.14666 388.41 2.848C386.804 2.54933 385.274 2.4 383.818 2.4C382.25 2.4 380.7 2.43733 379.17 2.512C377.639 2.54933 376.09 2.568 374.522 2.568H366.066V3.352H371.218Z" stroke="#212121" stroke-width="1.4" mask="url(#path-1-outside-1_57_724)"/>
</svg>
